<svg width="50" height="50" viewBox="0 0 50 50" fill="none" xmlns="http://www.w3.org/2000/svg">
<g clip-path="url(#clip0_30_4)">
<path d="M25 5C26.3828 5 27.5 6.11719 27.5 7.5V23.75C27.5 24.4375 28.0625 25 28.75 25C29.4375 25 30 24.4375 30 23.75V10C30 8.61719 31.1172 7.5 32.5 7.5C33.8828 7.5 35 8.61719 35 10V23.75C35 24.4375 35.5625 25 36.25 25C36.9375 25 37.5 24.4375 37.5 23.75V15C37.5 13.6172 38.6172 12.5 40 12.5C41.3828 12.5 42.5 13.6172 42.5 15V30.2422C41.5703 30.6172 40.8359 31.4062 40.5469 32.4141L39.8516 34.8516L37.4141 35.5469C35.9844 35.9609 35 37.2656 35 38.75C35 40.2266 35.9766 41.5312 37.3906 41.9453C35.0313 43.8594 32.0234 45 28.75 45H27.25C22.5937 45 18.1172 43.2109 14.75 40L5.96875 31.6406C4.71875 30.4531 4.67188 28.4687 5.85938 27.2187C7.04687 25.9687 9.03125 25.9219 10.2813 27.1094L15.0078 31.6094C15.0078 31.4922 15 31.3672 15 31.25V10C15 8.61719 16.1172 7.5 17.5 7.5C18.8828 7.5 20 8.61719 20 10V23.75C20 24.4375 20.5625 25 21.25 25C21.9375 25 22.5 24.4375 22.5 23.75V7.5C22.5 6.11719 23.6172 5 25 5ZM24.4297 30.5156C24.3438 30.2109 24.0625 30 23.75 30C23.4375 30 23.1562 30.2109 23.0703 30.5156L22.5 32.5L20.5156 33.0703C20.2109 33.1562 20 33.4375 20 33.75C20 34.0625 20.2109 34.3438 20.5156 34.4297L22.5 35L23.0703 36.9844C23.1562 37.2891 23.4375 37.5 23.75 37.5C24.0625 37.5 24.3438 37.2891 24.4297 36.9844L25 35L26.9844 34.4297C27.2891 34.3438 27.5 34.0625 27.5 33.75C27.5 33.4375 27.2891 33.1562 26.9844 33.0703L25 32.5L24.4297 30.5156ZM8.125 14.375L11.8984 15.4531C12.2578 15.5547 12.5 15.8828 12.5 16.25C12.5 16.6172 12.2578 16.9453 11.8984 17.0469L8.125 18.125L7.04687 21.8984C6.94531 22.2578 6.61719 22.5 6.25 22.5C5.88281 22.5 5.55469 22.2578 5.45313 21.8984L4.375 18.125L0.601562 17.0469C0.242187 16.9453 0 16.6172 0 16.25C0 15.8828 0.242187 15.5547 0.601562 15.4531L4.375 14.375L5.45313 10.6016C5.55469 10.2422 5.88281 10 6.25 10C6.61719 10 6.94531 10.2422 7.04687 10.6016L8.125 14.375ZM45.625 36.875L49.3984 37.9531C49.7578 38.0547 50 38.3828 50 38.75C50 39.1172 49.7578 39.4453 49.3984 39.5469L45.625 40.625L44.5469 44.3984C44.4453 44.7578 44.1172 45 43.75 45C43.3828 45 43.0547 44.7578 42.9531 44.3984L41.875 40.625L38.1016 39.5469C37.7422 39.4453 37.5 39.1172 37.5 38.75C37.5 38.3828 37.7422 38.0547 38.1016 37.9531L41.875 36.875L42.9531 33.1016C43.0547 32.7422 43.3828 32.5 43.75 32.5C44.1172 32.5 44.4453 32.7422 44.5469 33.1016L45.625 36.875Z" fill="#AE9E9D"/>
</g>
<defs>
<clipPath id="clip0_30_4">
<rect width="50" height="40" fill="white" transform="translate(0 5)"/>
</clipPath>
</defs>
</svg>
