<svg width="24" height="24" viewBox="0 0 24 24" fill="none" xmlns="http://www.w3.org/2000/svg">
<g clip-path="url(#clip0_1_22)">
<path d="M15.188 8.13151L13.2797 7.85439L12.4262 6.12472C12.3801 6.03124 12.3044 5.95563 12.2109 5.90945C11.9761 5.7935 11.6918 5.88987 11.5758 6.12472L10.7223 7.85439L8.81348 8.13151C8.71015 8.14644 8.61464 8.19497 8.54176 8.26972C8.35887 8.45716 8.36262 8.7574 8.55006 8.94024L9.93096 10.2864L9.60482 12.1873C9.60027 12.2137 9.59803 12.2405 9.59803 12.2673C9.59803 12.5292 9.81029 12.7415 10.0722 12.7415C10.1492 12.7409 10.225 12.7216 10.2929 12.6851L12 11.7895L13.707 12.6851C13.7993 12.734 13.9051 12.7511 14.0081 12.7337C14.2663 12.6901 14.4402 12.4455 14.3967 12.1873L14.0706 10.2864L15.4515 8.94024C15.5262 8.86736 15.5747 8.77185 15.5897 8.66852C15.627 8.40927 15.4472 8.16886 15.188 8.13151ZM13.2291 9.77738C13.1168 9.8867 13.0657 10.0444 13.0927 10.1989L13.2982 11.3985L12.2208 10.8321C12.1525 10.797 12.0768 10.7789 12 10.7794C11.9229 10.78 11.8472 10.7993 11.7792 10.8358L10.7018 11.4022L10.9078 10.2026C10.9348 10.0481 10.8837 9.89039 10.7714 9.78107L9.89992 8.93125L11.1043 8.75633C11.2588 8.73396 11.3923 8.63706 11.4615 8.49713L12 7.4055L12.5384 8.49713C12.6076 8.63706 12.7412 8.73402 12.8957 8.75633L14.1006 8.92809L13.2291 9.77738Z" fill="white"/>
<path d="M12 3.23541C8.59211 3.23541 5.82945 5.99807 5.82945 9.40593C5.82945 12.8138 8.59211 15.5765 12 15.5765C15.4063 15.5727 18.1667 12.8122 18.1705 9.40593C18.1705 5.99807 15.4078 3.23541 12 3.23541ZM12 14.6281C9.11585 14.6281 6.77779 12.2901 6.77779 9.40593C6.77779 6.52181 9.11585 4.18375 12 4.18375C14.8828 4.18696 17.2189 6.52315 17.2222 9.40593C17.2222 12.2901 14.8841 14.6281 12 14.6281Z" fill="white"/>
<path d="M20.6847 10.6846L19.7974 11.0202C19.9355 11.3853 20.1072 11.8395 20.0482 12.0213C19.9818 12.2257 19.5799 12.4875 19.2247 12.7188C18.8032 12.9938 18.3238 13.3057 17.9945 13.7588C17.6652 14.2119 17.5098 14.773 17.3765 15.263C17.2711 15.6481 17.1415 16.1276 16.9735 16.2498C16.8054 16.372 16.3186 16.3452 15.9198 16.3262C15.4103 16.302 14.8328 16.2735 14.2897 16.4516C13.7628 16.6223 13.325 16.9784 12.9372 17.2909C12.6048 17.5596 12.2275 17.8641 12.0005 17.8641C11.7735 17.8641 11.3962 17.5596 11.0633 17.2898C10.6755 16.9763 10.2361 16.6213 9.71135 16.4511C9.41106 16.3536 9.07438 16.3083 8.65134 16.3083C8.45588 16.3083 8.26464 16.3173 8.08025 16.3263C7.6846 16.3452 7.19248 16.3684 7.02971 16.2499C6.86694 16.1313 6.73151 15.6471 6.62615 15.262C6.49286 14.7715 6.34218 14.2161 6.00866 13.7578C5.67514 13.2994 5.20046 12.9933 4.7779 12.7178C4.42335 12.4865 4.02134 12.2247 3.95494 12.0203C3.89592 11.8396 4.06822 11.3849 4.20627 11.0192C4.38911 10.5361 4.5956 9.98869 4.5956 9.40598C4.5956 8.82327 4.38852 8.27587 4.20573 7.79274C4.06768 7.42765 3.89592 6.97294 3.9544 6.7917C4.02081 6.5873 4.42276 6.32543 4.7779 6.09363C5.19939 5.81859 5.67829 5.50669 6.00812 5.05417C6.33795 4.60159 6.4928 4.03996 6.62615 3.54998C6.73151 3.16483 6.8611 2.68539 7.02917 2.56317C7.19725 2.44096 7.68407 2.46782 8.08025 2.48676C8.5897 2.511 9.1677 2.53947 9.71349 2.36139C10.2403 2.1907 10.6776 1.83455 11.0659 1.52211C11.3958 1.25237 11.773 0.948335 12 0.948335C12.2271 0.948335 12.6044 1.25232 12.9368 1.52206C13.3245 1.83551 13.7639 2.19065 14.2892 2.36134C14.8329 2.53781 15.4108 2.51042 15.9224 2.48671C16.3181 2.46825 16.8102 2.44508 16.973 2.56312C17.1357 2.68116 17.2686 3.16424 17.3739 3.54993C17.5072 4.04044 17.6579 4.59576 17.9914 5.05411C18.3249 5.51247 18.7996 5.81913 19.2222 6.09411C19.5768 6.32537 19.9787 6.58725 20.0457 6.79165C20.1047 6.97288 19.9324 7.42755 19.7943 7.79269C19.6115 8.27582 19.4045 8.82375 19.4045 9.40592C19.4045 9.9881 19.6115 10.536 19.7943 11.0192L20.2379 10.8516L20.6815 10.6841C20.5124 10.2373 20.3527 9.81532 20.3527 9.40592C20.3527 8.99653 20.5108 8.57456 20.681 8.12776C20.9007 7.54821 21.1088 6.99659 20.947 6.49874C20.7769 5.97559 20.2495 5.63206 19.7395 5.29961C19.3707 5.05781 18.985 4.80808 18.758 4.49618C18.5309 4.18428 18.406 3.73277 18.2885 3.30127C18.1226 2.69117 17.9661 2.11477 17.5283 1.79656C17.0905 1.47834 16.503 1.50996 15.875 1.53945C15.4256 1.56053 14.9604 1.58263 14.5816 1.45934C14.2234 1.34291 13.8719 1.05894 13.5326 0.784438C13.0537 0.398854 12.5626 0 12 0C11.4373 0 10.9463 0.398854 10.4668 0.785026C10.1275 1.05953 9.77615 1.34296 9.41786 1.4594C9.03907 1.58215 8.59436 1.5616 8.12444 1.5395C7.49641 1.51002 6.90321 1.48208 6.47065 1.79661C6.03809 2.11113 5.87638 2.69224 5.7104 3.30181C5.59289 3.7333 5.47175 4.17957 5.24097 4.49671C5.01018 4.81386 4.63086 5.05834 4.25946 5.30015C3.74946 5.6326 3.22208 5.97612 3.05192 6.49928C2.89017 6.99718 3.09826 7.54666 3.31797 8.12883C3.48658 8.57563 3.64619 8.9976 3.64619 9.40646C3.64619 9.81532 3.48813 10.2373 3.31797 10.6846C3.09826 11.2642 2.89017 11.8163 3.05192 12.3136C3.22208 12.8373 3.74946 13.1809 4.25946 13.5133C4.62824 13.7551 5.01393 14.0048 5.24043 14.3167C5.46699 14.6286 5.59236 15.0802 5.70986 15.5116C5.81099 15.8847 5.90956 16.245 6.07078 16.5416L4.14987 21.4541C4.05462 21.698 4.17518 21.973 4.41913 22.0682C4.49179 22.0966 4.57034 22.1066 4.64777 22.0973L7.33471 21.776L9.08969 23.8339C9.25979 24.033 9.55912 24.0565 9.75823 23.8863C9.8181 23.8351 9.86428 23.7699 9.89264 23.6963L11.8078 18.7966C11.9353 18.8178 12.0654 18.8178 12.1929 18.7966L14.1075 23.6963C14.2029 23.9402 14.478 24.0606 14.7219 23.9652C14.7946 23.9367 14.8592 23.8907 14.9099 23.8312L16.6649 21.7733L19.3519 22.0947C19.6119 22.1255 19.8477 21.9395 19.8784 21.6795C19.8875 21.6032 19.8778 21.5258 19.8503 21.4541L17.9286 16.5406C18.0899 16.244 18.1878 15.8836 18.2896 15.5106C18.4065 15.0791 18.5277 14.6329 18.759 14.3157C18.9902 13.9986 19.3691 13.7541 19.7405 13.5123C20.2505 13.1798 20.7784 12.8363 20.948 12.3132C21.1098 11.8153 20.9022 11.2663 20.6847 10.6846ZM9.29559 22.6158L7.89045 20.9672C7.78739 20.8466 7.63077 20.7855 7.47319 20.8045L5.3215 21.0621L6.83306 17.196C7.20977 17.3162 7.65705 17.2951 8.12386 17.273C8.29771 17.2645 8.47739 17.2561 8.6507 17.2561C8.97101 17.2561 9.21495 17.2867 9.4178 17.3526C9.77605 17.469 10.127 17.7524 10.4668 18.0275C10.6249 18.1544 10.7829 18.2825 10.9452 18.3962L9.29559 22.6158ZM18.6783 21.0621L16.5272 20.8045C16.3695 20.7856 16.2129 20.8469 16.1099 20.9678L14.7043 22.6163L13.0536 18.3973C13.2159 18.2824 13.375 18.1544 13.532 18.0285C13.8713 17.754 14.2227 17.4705 14.581 17.3541C14.9593 17.2314 15.4034 17.2519 15.8749 17.274C16.3464 17.2962 16.789 17.3167 17.1657 17.1971L18.6783 21.0621Z" fill="white"/>
</g>
<defs>
<clipPath id="clip0_1_22">
<rect width="24" height="24" fill="white"/>
</clipPath>
</defs>
</svg>
