<svg width="24" height="24" viewBox="0 0 24 24" fill="none" xmlns="http://www.w3.org/2000/svg">
<g clip-path="url(#clip0_1_2)">
<path d="M7.10481 9.79356C7.01763 9.70638 6.89669 9.65622 6.77341 9.65622C6.65013 9.65622 6.52923 9.70633 6.442 9.79356C6.35481 9.88075 6.30466 10.0017 6.30466 10.125C6.30466 10.2483 6.35481 10.3692 6.442 10.4563C6.52919 10.5435 6.65013 10.5937 6.77341 10.5937C6.89669 10.5937 7.01763 10.5436 7.10481 10.4563C7.192 10.3692 7.24216 10.2483 7.24216 10.125C7.24216 10.0017 7.192 9.88075 7.10481 9.79356Z" fill="white"/>
<path d="M22.5937 0H3.93748C3.16208 0 2.53124 0.630841 2.53124 1.40624V9.18746C2.53124 9.96287 3.16208 10.5937 3.93748 10.5937H4.78123C5.04012 10.5937 5.24998 10.3838 5.24998 10.125C5.24998 9.86612 5.04012 9.65621 4.78123 9.65621H3.93748C3.67901 9.65621 3.46873 9.44593 3.46873 9.18746V1.40624C3.46873 1.14778 3.67901 0.937496 3.93748 0.937496H22.5937C22.8521 0.937496 23.0624 1.14778 23.0624 1.40624V9.18746C23.0624 9.44593 22.8521 9.65621 22.5937 9.65621H19.4583C19.334 9.65621 19.2148 9.70562 19.1269 9.79351L17.5833 11.337L16.0398 9.79351C15.9519 9.70562 15.8327 9.65621 15.7084 9.65621H12.0528C12.0184 9.56771 11.9794 9.48039 11.9353 9.3947C11.5997 8.74262 11.0284 8.26605 10.3268 8.05272L9.64904 7.84666C9.41044 7.774 9.15676 7.90113 9.07191 8.13564L8.00701 11.0789C7.71165 11.8952 7.12909 12.5734 6.36672 12.9885L5.36707 13.5329C5.1214 13.2346 4.74945 13.0442 4.33381 13.0442H1.33851C0.60051 13.0442 0.00013734 13.6446 0.00013734 14.3826V22.6614C4.35904e-05 23.3995 0.600463 23.9999 1.33846 23.9999H4.33376C4.80035 23.9999 5.21168 23.7598 5.4513 23.3967L5.92961 23.5843C6.63283 23.8602 7.37247 24 8.12795 24H14.4527C15.4017 24 16.1737 23.228 16.1737 22.279C16.1737 21.9649 16.0887 21.6704 15.9411 21.4167C16.6392 21.1973 17.1471 20.5441 17.1471 19.7745C17.1471 19.4524 17.058 19.1508 16.9034 18.8928C17.5718 18.6563 18.0521 18.0183 18.0521 17.2699C18.0521 16.4904 17.5309 15.8306 16.8189 15.6198C16.9637 15.3678 17.047 15.0762 17.047 14.7653C17.047 13.8164 16.2749 13.0443 15.326 13.0443H11.5672L12.0928 11.4836C12.1911 11.1919 12.2376 10.8919 12.2344 10.5938H15.5142L17.2519 12.3315C17.3434 12.423 17.4634 12.4687 17.5833 12.4687C17.7033 12.4687 17.8233 12.423 17.9148 12.3315L19.6525 10.5937H22.5937C23.3691 10.5937 23.9999 9.96287 23.9999 9.18746V1.40624C23.9999 0.630841 23.3691 0 22.5937 0ZM4.73468 22.6615C4.73463 22.8826 4.55482 23.0624 4.33376 23.0624H1.33846C1.1174 23.0624 0.937587 22.8826 0.937587 22.6615V14.3826C0.937587 14.1616 1.1174 13.9817 1.33846 13.9817H2.36736V19.753C2.36736 20.0118 2.57722 20.2217 2.83611 20.2217C3.095 20.2217 3.30486 20.0118 3.30486 19.753V13.9817H4.33376C4.50884 13.9817 4.65767 14.0947 4.71218 14.2515C4.71607 14.2742 4.7217 14.2967 4.7291 14.3189C4.73243 14.3398 4.73468 14.3609 4.73468 14.3826V22.6615V22.6615ZM15.326 13.9817V13.9817C15.758 13.9817 16.1095 14.3332 16.1095 14.7652C16.1095 15.1973 15.758 15.5488 15.326 15.5488H12.783C12.5241 15.5488 12.3142 15.7587 12.3142 16.0175C12.3142 16.2764 12.5241 16.4863 12.783 16.4863L16.3311 16.4864C16.7632 16.4864 17.1146 16.8379 17.1146 17.2699C17.1146 17.7019 16.7632 18.0535 16.3311 18.0535H12.783C12.5241 18.0535 12.3142 18.2634 12.3142 18.5222C12.3142 18.7811 12.5241 18.991 12.783 18.991H15.4262C15.8582 18.991 16.2097 19.3424 16.2097 19.7745C16.2097 20.2065 15.8582 20.558 15.4262 20.558H12.783C12.5241 20.558 12.3142 20.7679 12.3142 21.0267C12.3142 21.2856 12.5241 21.4955 12.783 21.4955H14.4527C14.8848 21.4955 15.2362 21.847 15.2362 22.279C15.2362 22.7111 14.8848 23.0626 14.4527 23.0626H8.12795C7.49012 23.0626 6.86566 22.9444 6.27189 22.7116L5.67213 22.4764V14.4342L6.81498 13.8119C7.77878 13.2871 8.51513 12.4298 8.88849 11.3978L9.80204 8.87307L10.054 8.94967C10.5111 9.08865 10.8832 9.39906 11.1018 9.82374C11.3204 10.2484 11.3568 10.7317 11.2043 11.1843L10.4704 13.3633C10.4222 13.5064 10.4459 13.6639 10.5339 13.7864C10.622 13.909 10.7637 13.9817 10.9147 13.9817H15.326Z" fill="white"/>
<path d="M21.8531 4.54574C21.7643 4.27274 21.5327 4.07751 21.2485 4.03631L20.4194 3.91607L20.0484 3.1649C19.9212 2.90751 19.664 2.74767 19.377 2.74767C19.377 2.74767 19.3768 2.74767 19.3768 2.74767C19.0897 2.74776 18.8324 2.90774 18.7054 3.16523L18.3349 3.91663L17.5057 4.03734C17.2216 4.07873 16.9901 4.27406 16.9014 4.54715C16.8128 4.8202 16.8854 5.11434 17.0911 5.31473L17.6912 5.89935L17.5498 6.72515C17.5013 7.00818 17.6155 7.28873 17.8479 7.45748C17.9791 7.55277 18.1326 7.60115 18.2872 7.60115C18.4062 7.60115 18.526 7.57241 18.6365 7.51424L19.3781 7.12415L20.1198 7.51382C20.3739 7.64732 20.6761 7.62543 20.9083 7.45659C21.1406 7.28774 21.2546 7.0071 21.206 6.72412L21.0641 5.89842L21.664 5.31342C21.8694 5.11288 21.9419 4.81874 21.8531 4.54574ZM20.3384 5.29654C20.1619 5.46862 20.0816 5.71645 20.1233 5.9594L20.2172 6.50606L19.726 6.24796C19.5077 6.13349 19.2472 6.13349 19.0292 6.24824L18.5383 6.50652L18.6319 5.95982C18.6735 5.71677 18.5929 5.46899 18.4164 5.29701L18.019 4.90992L18.568 4.82999C18.8119 4.79451 19.0227 4.64132 19.1316 4.42026L19.377 3.92277L19.6227 4.42012C19.7318 4.64113 19.9426 4.79418 20.1866 4.82957L20.7355 4.90917L20.3384 5.29654Z" fill="white"/>
<path d="M15.89 4.54574C15.8012 4.27274 15.5696 4.07756 15.2854 4.03631L14.4563 3.91607L14.0853 3.1649C13.9582 2.90751 13.701 2.74767 13.4139 2.74767C13.4138 2.74767 13.4137 2.74767 13.4137 2.74767C13.1266 2.74776 12.8693 2.90774 12.7423 3.16527L12.3718 3.91663L11.5426 4.03734C11.2585 4.07873 11.027 4.27406 10.9383 4.54715C10.8497 4.8202 10.9223 5.11434 11.128 5.31473L11.7281 5.89935L11.5867 6.72515C11.5382 7.00818 11.6525 7.28877 11.8848 7.45748C12.016 7.55277 12.1695 7.60115 12.324 7.60115C12.4431 7.60115 12.5628 7.57241 12.6734 7.51424L13.4149 7.12415L14.1566 7.51382C14.4108 7.64732 14.7129 7.62543 14.9452 7.45659C15.1774 7.28774 15.2915 7.0071 15.2429 6.72412L15.101 5.89842L15.7009 5.31342C15.9063 5.11288 15.9788 4.81879 15.89 4.54574ZM14.3753 5.29654C14.1989 5.46862 14.1185 5.71645 14.1602 5.9594L14.2541 6.50606L13.7629 6.24801C13.5446 6.1334 13.2841 6.13354 13.0661 6.24824L12.5752 6.50652L12.6688 5.95982C12.7104 5.71677 12.6298 5.46899 12.4532 5.29701L12.0559 4.90992L12.6048 4.82999C12.8487 4.79451 13.0594 4.64137 13.1685 4.42021L13.4139 3.92273L13.6595 4.42002C13.7686 4.64109 13.9794 4.79418 14.2234 4.82957L14.7724 4.90917L14.3753 5.29654Z" fill="white"/>
<path d="M9.92698 4.54574C9.83815 4.27274 9.6065 4.07751 9.32239 4.03631L8.49326 3.91607L8.12225 3.1649C7.99512 2.90751 7.73792 2.74767 7.45085 2.74767C7.45081 2.74767 7.45071 2.74767 7.45067 2.74767C7.16356 2.74776 6.90626 2.90774 6.77928 3.16527L6.40873 3.91663L5.5796 4.03734C5.29545 4.07873 5.06393 4.2741 4.97525 4.5472C4.8866 4.82024 4.95931 5.11438 5.16495 5.31473L5.76504 5.89935L5.62362 6.72515C5.57515 7.00818 5.68939 7.28877 5.9217 7.45748C6.0529 7.55277 6.20642 7.60115 6.36096 7.60115C6.48003 7.60115 6.5997 7.57241 6.71028 7.51424L7.45179 7.12415L8.1935 7.51382C8.44765 7.64732 8.74981 7.62543 8.98207 7.45659C9.21429 7.28774 9.32834 7.0071 9.27973 6.72412L9.13789 5.89842L9.73775 5.31342C9.94329 5.11288 10.0158 4.81879 9.92698 4.54574ZM8.41231 5.29654C8.23582 5.46862 8.15543 5.71645 8.19715 5.9594L8.29104 6.50606L7.79984 6.24801C7.58159 6.1334 7.32101 6.13354 7.10304 6.24824L6.61212 6.50652L6.70578 5.95968C6.74731 5.71673 6.66673 5.46904 6.4902 5.29701L6.09284 4.90992L6.64175 4.82999C6.88568 4.79451 7.09639 4.64137 7.20551 4.42021L7.45085 3.92273L7.69643 4.42002C7.80556 4.64109 8.0164 4.79418 8.26039 4.82957L8.80939 4.90917L8.41231 5.29654Z" fill="white"/>
<path d="M2.83612 20.9699C2.57723 20.9699 2.36737 21.1798 2.36737 21.4386V21.4459C2.36737 21.7048 2.57723 21.9147 2.83612 21.9147C3.09501 21.9147 3.30487 21.7048 3.30487 21.4459V21.4386C3.30487 21.1798 3.09501 20.9699 2.83612 20.9699Z" fill="white"/>
</g>
<defs>
<clipPath id="clip0_1_2">
<rect width="24" height="24" fill="white"/>
</clipPath>
</defs>
</svg>
