<svg width="24" height="24" viewBox="0 0 24 24" fill="none" xmlns="http://www.w3.org/2000/svg">
<g clip-path="url(#clip0_1_30)">
<path d="M21.654 18.6612C22.1281 18.0093 22.385 17.2248 22.3884 16.4188C22.3935 16.3128 22.3563 16.2091 22.285 16.1306C22.2136 16.0521 22.114 16.0051 22.008 16C21.7882 15.9918 21.6021 16.1608 21.5892 16.3804C21.5922 17.0192 21.3954 17.643 21.0264 18.1644C20.246 19.15 18.7652 19.2 18.476 19.2C18.2551 19.2 18.076 19.3791 18.076 19.6C18.076 19.8209 18.2551 20 18.476 20C18.8296 20 20.6444 19.9356 21.654 18.6612V18.6612Z" fill="white"/>
<path d="M13.6 13.6C13.6 13.3791 13.4209 13.2 13.2 13.2C12.9791 13.2 12.8 13.3791 12.8 13.6C12.8 14.4836 13.5163 15.2 14.4 15.2V15.6C14.4 15.8209 14.5791 16 14.8 16C15.0209 16 15.2 15.8209 15.2 15.6V15.2C16.0837 15.2 16.8 14.4836 16.8 13.6C16.8 12.7163 16.0837 12 15.2 12V10.4C15.6418 10.4 16 10.7582 16 11.2C16 11.4209 16.1791 11.6 16.4 11.6C16.6209 11.6 16.8 11.4209 16.8 11.2C16.8 10.3163 16.0837 9.59999 15.2 9.59999V9.19999C15.2 8.97907 15.0209 8.79999 14.8 8.79999C14.5791 8.79999 14.4 8.97907 14.4 9.19999V9.59999C13.5163 9.59999 12.8 10.3163 12.8 11.2C12.8 12.0836 13.5163 12.8 14.4 12.8V14.4C13.9582 14.4 13.6 14.0418 13.6 13.6ZM13.6 11.2C13.6 10.7582 13.9582 10.4 14.4 10.4V12C13.9582 12 13.6 11.6418 13.6 11.2ZM15.2 12.8C15.6418 12.8 16 13.1582 16 13.6C16 14.0418 15.6418 14.4 15.2 14.4V12.8Z" fill="white"/>
<path d="M23.6656 13.5084C22.68 9.31999 20.4888 6.89319 18.9064 5.62559C20.8908 5.77519 21.5296 6.60079 21.5484 6.62559C21.6737 6.80449 21.9194 6.84978 22.1002 6.72734C22.2811 6.6049 22.3303 6.36 22.2108 6.17719C22.182 6.13399 21.6264 5.34039 20.0108 4.97719C20.4239 4.63759 20.6683 4.13465 20.68 3.59999C20.6265 2.71357 20.0094 1.9619 19.1504 1.73679C19.1856 1.44786 19.2035 1.15707 19.204 0.865993C19.2036 0.597833 19.0688 0.347724 18.8451 0.199868C18.6214 0.0520115 18.3385 0.0260762 18.0916 0.130793C17.8897 0.222223 17.7021 0.34255 17.5348 0.487993C17.3385 0.689721 17.0683 0.802439 16.7868 0.799993C16.5058 0.801971 16.2361 0.689302 16.04 0.487993C15.3351 -0.163071 14.2481 -0.163071 13.5432 0.487993C13.3469 0.690161 13.0762 0.80294 12.7944 0.799993C12.5134 0.802328 12.2437 0.689594 12.048 0.487993C11.8811 0.342863 11.6941 0.22268 11.4928 0.131193C11.2461 0.027178 10.9637 0.0534676 10.7405 0.201236C10.5172 0.349005 10.3827 0.598661 10.382 0.866393C10.382 1.86159 10.5788 3.63679 11.8248 4.82879C11.17 5.22697 10.5584 5.69228 10 6.21719V3.19999C10 2.28799 8.71 1.59999 7 1.59999C5.29 1.59999 4 2.28799 4 3.19999V7.22999C2.5972 7.36999 1.6 7.99999 1.6 8.79999V18.974C0.6336 19.2336 0 19.76 0 20.4V22.4C0 23.312 1.29 24 3 24C4.5292 24 5.72 23.4492 5.9548 22.68C6.64526 23.0456 7.41912 23.2248 8.2 23.2C9.91 23.2 11.2 22.512 11.2 21.6V16.4C11.2 15.488 9.91 14.8 8.2 14.8C7.99962 14.7999 7.79937 14.8099 7.6 14.83V8.79999C7.6 7.92399 6.4092 7.25679 4.8 7.20519V4.30759C5.48049 4.65347 6.23699 4.82279 7 4.79999C7.76301 4.82279 8.51951 4.65347 9.2 4.30759V7.03559C8.9364 7.33039 8.6716 7.65159 8.4104 8.00759C8.29079 8.18571 8.333 8.42647 8.50607 8.55326C8.67915 8.68006 8.92143 8.64773 9.0552 8.47999C9.31211 8.13219 9.58743 7.79838 9.88 7.47999C9.8832 7.47639 9.886 7.47279 9.8892 7.46959C10.6528 6.62099 11.5494 5.90238 12.544 5.34199C12.7401 5.43658 12.9475 5.50554 13.1612 5.54719L12.13 6.50959C11.9685 6.66048 11.9599 6.91371 12.1108 7.07519C12.2617 7.23668 12.5149 7.24528 12.6764 7.09439L14.2764 5.60199H14.404V6.80199C14.404 7.02291 14.5831 7.20199 14.804 7.20199C15.0249 7.20199 15.204 7.02291 15.204 6.80199V5.59999H15.3316L16.9316 7.09239C17.0361 7.19 17.1847 7.22446 17.3214 7.18279C17.4582 7.14113 17.5623 7.02966 17.5946 6.89039C17.6269 6.75112 17.5825 6.6052 17.478 6.50759L16.44 5.54119C16.6524 5.49916 16.8585 5.42992 17.0532 5.33519C18.1104 5.90719 21.5856 8.16719 22.8872 13.6916C23.4532 16.0964 23.2492 17.936 22.2812 19.158C21.0428 20.72 18.894 20.8 18.476 20.8H12.8C12.5791 20.8 12.4 20.9791 12.4 21.2C12.4 21.4209 12.5791 21.6 12.8 21.6H18.476C19.156 21.6 21.478 21.4596 22.908 19.6548C24.0352 18.2312 24.2904 16.1632 23.6656 13.5084V13.5084ZM3 19.6C4.3228 19.6 5.2 20.08 5.2 20.4C5.2 20.72 4.3228 21.2 3 21.2C1.6772 21.2 0.8 20.72 0.8 20.4C0.8 20.08 1.6772 19.6 3 19.6ZM3 23.2C1.6772 23.2 0.8 22.72 0.8 22.4V21.5076C1.48049 21.8535 2.23699 22.0228 3 22C3.76301 22.0228 4.51951 21.8535 5.2 21.5076V22.4C5.2 22.72 4.3228 23.2 3 23.2ZM8.2 22.4C6.8772 22.4 6 21.92 6 21.6V17.5076C6.68049 17.8535 7.43699 18.0228 8.2 18C8.96301 18.0228 9.71951 17.8535 10.4 17.5076V21.6C10.4 21.92 9.5228 22.4 8.2 22.4ZM10.4 16.4C10.4 16.72 9.5228 17.2 8.2 17.2C6.8772 17.2 6 16.72 6 16.4C6 16.08 6.8772 15.6 8.2 15.6C9.5228 15.6 10.4 16.08 10.4 16.4ZM5.2 16.4V19.2924C4.51951 18.9465 3.76301 18.7772 3 18.8C2.79962 18.7999 2.59937 18.8099 2.4 18.83V9.90759C3.08049 10.2535 3.83699 10.4228 4.6 10.4C5.36301 10.4228 6.11951 10.2535 6.8 9.90759V14.974C5.8336 15.2336 5.2 15.76 5.2 16.4ZM6.8 8.79999C6.8 9.11999 5.9228 9.59999 4.6 9.59999C3.2772 9.59999 2.4 9.11999 2.4 8.79999C2.4 8.47999 3.2772 7.99999 4.6 7.99999C5.9228 7.99999 6.8 8.47999 6.8 8.79999ZM7 3.99999C5.6772 3.99999 4.8 3.51999 4.8 3.19999C4.8 2.87999 5.6772 2.39999 7 2.39999C8.3228 2.39999 9.2 2.87999 9.2 3.19999C9.2 3.51999 8.3228 3.99999 7 3.99999ZM19.88 3.59999C19.88 4.25559 19.17 4.79359 18.28 4.79999C18.1311 4.79905 17.9828 4.78202 17.8376 4.74919C18.4182 4.12981 18.8217 3.36587 19.006 2.53719C19.4875 2.67906 19.8338 3.10018 19.88 3.59999ZM11.5472 1.11199C11.885 1.42853 12.3315 1.60322 12.7944 1.59999C13.2576 1.60347 13.7044 1.42875 14.0424 1.11199C14.2401 0.912369 14.5094 0.80006 14.7904 0.80006C15.0714 0.80006 15.3407 0.912369 15.5384 1.11199C15.8764 1.42899 16.3234 1.60374 16.7868 1.59999C17.2501 1.60357 17.6971 1.42885 18.0352 1.11199C18.1461 1.01402 18.2694 0.93117 18.402 0.865593C18.402 1.60839 18.264 3.44479 16.9752 4.45159C16.6853 4.66935 16.3338 4.78964 15.9712 4.79519C16.3175 4.20044 16.5915 3.56649 16.7876 2.90679C16.8259 2.76903 16.7878 2.6213 16.6876 2.51925C16.5875 2.41721 16.4405 2.37634 16.302 2.41205C16.1636 2.44777 16.0547 2.55463 16.0164 2.69239C15.7949 3.4443 15.4543 4.15585 15.0076 4.79999H14.5964C14.1506 4.15528 13.81 3.4439 13.5872 2.69239C13.5279 2.47954 13.3073 2.35508 13.0944 2.41439C12.8816 2.47371 12.7571 2.69434 12.8164 2.90719C13.0126 3.56746 13.287 4.20195 13.6336 4.79719C13.2638 4.7953 12.9044 4.67424 12.6088 4.45199C11.32 3.44559 11.182 1.60919 11.182 0.868793C11.3146 0.932301 11.4375 1.01417 11.5472 1.11199V1.11199Z" fill="white"/>
<path d="M21.654 18.6612C22.1281 18.0093 22.385 17.2248 22.3884 16.4188C22.3935 16.3128 22.3563 16.2091 22.285 16.1306C22.2136 16.0521 22.114 16.0051 22.008 16C21.7883 15.9922 21.6025 16.161 21.5892 16.3804C21.5922 17.0192 21.3954 17.643 21.0264 18.1644C20.246 19.15 18.7652 19.2 18.476 19.2C18.2551 19.2 18.076 19.3791 18.076 19.6C18.076 19.8209 18.2551 20 18.476 20C18.8296 20 20.6444 19.9356 21.654 18.6612V18.6612Z" fill="white"/>
</g>
<defs>
<clipPath id="clip0_1_30">
<rect width="24" height="24" fill="white"/>
</clipPath>
</defs>
</svg>
