<svg width="24" height="24" viewBox="0 0 24 24" fill="none" xmlns="http://www.w3.org/2000/svg">
<g clip-path="url(#clip0_3_42)">
<path d="M17.5 2.47372C19.9149 3.86794 21.7101 6.12726 22.5227 8.79471C23.3352 11.4622 23.1043 14.3386 21.8768 16.8424C20.6493 19.3461 18.5167 21.2902 15.9104 22.2815C13.3041 23.2727 10.4186 23.2372 7.83749 22.182C5.25639 21.1268 3.17235 19.1308 2.00689 16.5976C0.841424 14.0644 0.68152 11.1831 1.55952 8.53644C2.43751 5.88982 4.28788 3.67542 6.73637 2.34111C9.18486 1.0068 12.0487 0.652172 14.7487 1.34896" stroke="white" stroke-linecap="round"/>
<path d="M10.5 16.5L17.3533 12.8363C18.0405 12.469 18.0621 11.4917 17.3919 11.0943L9.99984 6.71103C9.33324 6.31576 8.4898 6.7962 8.4898 7.57118L8.4898 17.5" stroke="white" stroke-linecap="round"/>
</g>
<defs>
<clipPath id="clip0_3_42">
<rect width="24" height="24" fill="white"/>
</clipPath>
</defs>
</svg>
